# xmcd
#
# Track frame offsets:
# 150
# 16065
# 30705
# 49677
# 63210
# 77285
# 88672
# 99650
# 117597
# 128962
# 149022
# 162245
# 176115
# 191460
# 204550
# 220452
# 242967
# 260542
# 277140
# 291715
#
# Disc length: 4063 seconds
#
#
# Revision: 0
# Processed by: cddbd v1.5.1PL2 Copyright (c) Steve Scherf et al.
# Submitted via: FreeRIP 2.945 
#
DISCID=370fdd14
DTITLE=Danny Estocado - Greatest Hits..and then some
DYEAR=2001
DGENRE=Country
TTITLE0=Yesterday
TTITLE1=E'tiare
TTITLE2=Reconsider Me
TTITLE3=Hawaiian Cowboy
TTITLE4=Waiomina
TTITLE5=Ulupalakua
TTITLE6=Kupa Landing
TTITLE7=Ka'aahi Kahului
TTITLE8=Molokai Cowboy
TTITLE9=Heart of Hawaiian Music
TTITLE10=Hat Song
TTITLE11=Steal Away
TTITLE12=Chalking a Stick
TTITLE13=A Little Somethin'
TTITLE14=Lean on me
TTITLE15=Stand in the Light
TTITLE16=Love is all we need
TTITLE17=Island Love
TTITLE18=Helena
TTITLE19=Seeing is Believing
EXTD=Hawaiian
EXTT0=
EXTT1=
EXTT2=
EXTT3=
EXTT4=
EXTT5=
EXTT6=
EXTT7=
EXTT8=
EXTT9=
EXTT10=
EXTT11=
EXTT12=
EXTT13=
EXTT14=
EXTT15=
EXTT16=
EXTT17=
EXTT18=
EXTT19=
PLAYORDER=
